<svg width="664" height="664" viewBox="0 0 664 664" fill="none" xmlns="http://www.w3.org/2000/svg">
<g clip-path="url(#clip0_0_1)">
<path d="M332 663.5C515.082 663.5 663.5 515.082 663.5 332C663.5 148.918 515.082 0.5 332 0.5C148.918 0.5 0.5 148.918 0.5 332C0.5 515.082 148.918 663.5 332 663.5Z" stroke="url(#paint0_linear_0_1)"/>
<path d="M331.5 605.5C482.274 605.5 604.5 483.274 604.5 332.5C604.5 181.726 482.274 59.5 331.5 59.5C180.726 59.5 58.5 181.726 58.5 332.5C58.5 483.274 180.726 605.5 331.5 605.5Z" stroke="url(#paint1_linear_0_1)"/>
<path d="M549.5 333C549.5 453.121 451.899 550.5 331.5 550.5C211.101 550.5 113.5 453.121 113.5 333C113.5 212.879 211.101 115.5 331.5 115.5C451.899 115.5 549.5 212.879 549.5 333Z" stroke="url(#paint2_linear_0_1)"/>
<path d="M496 136C509.807 136 521 124.807 521 111C521 97.1929 509.807 86 496 86C482.193 86 471 97.1929 471 111C471 124.807 482.193 136 496 136Z" fill="#59ED9D"/>
<path d="M496 136.5C510.083 136.5 521.5 125.083 521.5 111C521.5 96.9167 510.083 85.5 496 85.5C481.917 85.5 470.5 96.9167 470.5 111C470.5 125.083 481.917 136.5 496 136.5Z" fill="#59ED9D" stroke="#A27BF6"/>
<path d="M496 100.167V104.5" stroke="white" stroke-width="1.625" stroke-linecap="round" stroke-linejoin="round"/>
<path d="M496 117.5V121.833" stroke="white" stroke-width="1.625" stroke-linecap="round" stroke-linejoin="round"/>
<path d="M506.833 111H502.5" stroke="white" stroke-width="1.625" stroke-linecap="round" stroke-linejoin="round"/>
<path d="M489.5 111H485.167" stroke="white" stroke-width="1.625" stroke-linecap="round" stroke-linejoin="round"/>
<path d="M488.34 103.339L491.404 106.403" stroke="white" stroke-width="1.625" stroke-linecap="round" stroke-linejoin="round"/>
<path d="M500.596 115.596L503.66 118.66" stroke="white" stroke-width="1.625" stroke-linecap="round" stroke-linejoin="round"/>
<path d="M503.66 103.339L500.596 106.403" stroke="white" stroke-width="1.625" stroke-linecap="round" stroke-linejoin="round"/>
<path d="M491.404 115.596L488.34 118.66" stroke="white" stroke-width="1.625" stroke-linecap="round" stroke-linejoin="round"/>
<path d="M587 449C600.807 449 612 437.807 612 424C612 410.193 600.807 399 587 399C573.193 399 562 410.193 562 424C562 437.807 573.193 449 587 449Z" fill="#00887A"/>
<path d="M587 449.5C601.083 449.5 612.5 438.083 612.5 424C612.5 409.917 601.083 398.5 587 398.5C572.917 398.5 561.5 409.917 561.5 424C561.5 438.083 572.917 449.5 587 449.5Z" fill="#00887A" stroke="#AB92E1"/>
<path d="M169 499C182.807 499 194 487.807 194 474C194 460.193 182.807 449 169 449C155.193 449 144 460.193 144 474C144 487.807 155.193 499 169 499Z" fill="#00887A" fill-opacity="0.13"/>
<path d="M169 499.5C183.083 499.5 194.5 488.083 194.5 474C194.5 459.917 183.083 448.5 169 448.5C154.917 448.5 143.5 459.917 143.5 474C143.5 488.083 154.917 499.5 169 499.5Z" fill="#00887A" fill-opacity="0.13" stroke="#8351F1"/>
<path d="M496 640C509.807 640 521 628.807 521 615C521 601.193 509.807 590 496 590C482.193 590 471 601.193 471 615C471 628.807 482.193 640 496 640Z" fill="#59ED9D"/>
<path d="M496 640.5C510.083 640.5 521.5 629.083 521.5 615C521.5 600.917 510.083 589.5 496 589.5C481.917 589.5 470.5 600.917 470.5 615C470.5 629.083 481.917 640.5 496 640.5Z" fill="#59ED9D" stroke="#603DAB"/>
<path d="M492.5 611.5L497.75 615L503 611.5" stroke="white" stroke-width="1.75" stroke-linecap="round" stroke-linejoin="round"/>
<path d="M485.5 616.75H487.833" stroke="white" stroke-width="1.75" stroke-linecap="round" stroke-linejoin="round"/>
<path d="M483.166 613.25H487.833" stroke="white" stroke-width="1.75" stroke-linecap="round" stroke-linejoin="round"/>
<path d="M487.834 609.75V609.167C487.834 607.878 488.878 606.833 490.167 606.833H505.334C506.622 606.833 507.667 607.878 507.667 609.167V620.833C507.667 622.122 506.622 623.167 505.334 623.167H490.167C488.878 623.167 487.834 622.122 487.834 620.833V620.25" stroke="white" stroke-width="1.75" stroke-linecap="round"/>
<path d="M119 98C132.807 98 144 86.8071 144 73C144 59.1929 132.807 48 119 48C105.193 48 94 59.1929 94 73C94 86.8071 105.193 98 119 98Z" fill="#00887A"/>
<path d="M119 98.5C133.083 98.5 144.5 87.0833 144.5 73C144.5 58.9167 133.083 47.5 119 47.5C104.917 47.5 93.5 58.9167 93.5 73C93.5 87.0833 104.917 98.5 119 98.5Z" fill="#00887A" stroke="#9569F4"/>
<path d="M61 332C74.8071 332 86 320.807 86 307C86 293.193 74.8071 282 61 282C47.1929 282 36 293.193 36 307C36 320.807 47.1929 332 61 332Z" fill="#59ED9D"/>
<path d="M61 332.5C75.0833 332.5 86.5 321.083 86.5 307C86.5 292.917 75.0833 281.5 61 281.5C46.9167 281.5 35.5 292.917 35.5 307C35.5 321.083 46.9167 332.5 61 332.5Z" fill="#59ED9D" stroke="#D3BFFE"/>
<path d="M107.964 81.9033C109.429 83.4167 111.786 83.4167 116.5 83.4167H121.5C126.214 83.4167 128.571 83.4167 130.036 81.9033C131.5 80.3902 131.5 77.9545 131.5 73.0833C131.5 71.5723 131.5 70.2958 131.456 69.2083M130.036 64.2633C128.571 62.75 126.214 62.75 121.5 62.75H116.5C111.786 62.75 109.429 62.75 107.964 64.2633C106.5 65.7766 106.5 68.2122 106.5 73.0833C106.5 74.5943 106.5 75.8709 106.544 76.9583" stroke="white" stroke-width="1.5" stroke-linecap="round"/>
<path d="M119 57.5833C121.357 57.5833 122.535 57.5833 123.268 58.34C124 59.0966 124 60.3144 124 62.75M114.732 58.34C114 59.0966 114 60.3144 114 62.75" stroke="white" stroke-width="1.5" stroke-linecap="round"/>
<path d="M119 77.3889C120.381 77.3889 121.5 76.425 121.5 75.2362C121.5 74.0472 120.381 73.0834 119 73.0834C117.619 73.0834 116.5 72.1195 116.5 70.9305C116.5 69.7417 117.619 68.7778 119 68.7778M119 77.3889C117.619 77.3889 116.5 76.425 116.5 75.2362M119 77.3889V78.25M119 68.7778V67.9167M119 68.7778C120.381 68.7778 121.5 69.7417 121.5 70.9305" stroke="white" stroke-width="1.5" stroke-linecap="round"/>
<path d="M65.4492 315.026C63.0574 318.262 61.8615 319.88 60.7458 319.538C59.6301 319.196 59.6301 317.212 59.6301 313.243L59.6302 312.869C59.6302 311.437 59.6302 310.722 59.1728 310.273L59.1486 310.249C58.6813 309.81 57.9364 309.81 56.4465 309.81C53.7653 309.81 52.4248 309.81 51.9717 308.997C51.9642 308.983 51.9569 308.97 51.9498 308.956C51.5221 308.13 52.2983 307.08 53.8507 304.98L57.5508 299.974C59.9425 296.738 61.1384 295.12 62.2541 295.462C63.3698 295.804 63.3698 297.788 63.3698 301.757V302.131C63.3698 303.563 63.3698 304.278 63.8273 304.727L63.8514 304.751C64.3187 305.19 65.0636 305.19 66.5535 305.19C69.2347 305.19 70.5753 305.19 71.0283 306.003C71.0358 306.017 71.0431 306.03 71.0502 306.044C71.478 306.87 70.7017 307.92 69.1492 310.02" stroke="white" stroke-width="1.5" stroke-linecap="round"/>
<path d="M168.468 467.486C168.927 466.662 169.157 466.25 169.5 466.25C169.843 466.25 170.073 466.662 170.532 467.486L170.651 467.699C170.781 467.933 170.846 468.05 170.948 468.127C171.05 468.204 171.177 468.233 171.43 468.29L171.661 468.342C172.552 468.544 172.998 468.645 173.104 468.986C173.21 469.327 172.906 469.683 172.298 470.393L172.141 470.577C171.968 470.779 171.882 470.88 171.843 471.005C171.804 471.13 171.817 471.265 171.844 471.534L171.867 471.78C171.959 472.728 172.005 473.202 171.728 473.413C171.45 473.624 171.032 473.432 170.198 473.047L169.982 472.948C169.744 472.839 169.626 472.784 169.5 472.784C169.374 472.784 169.256 472.839 169.018 472.948L168.802 473.047C167.968 473.432 167.55 473.624 167.272 473.413C166.995 473.202 167.041 472.728 167.133 471.78L167.156 471.534C167.183 471.265 167.196 471.13 167.157 471.005C167.118 470.88 167.032 470.779 166.859 470.577L166.702 470.393C166.094 469.683 165.79 469.327 165.896 468.986C166.002 468.645 166.448 468.544 167.339 468.342L167.57 468.29C167.823 468.233 167.95 468.204 168.052 468.127C168.154 468.05 168.219 467.933 168.349 467.699L168.468 467.486Z" stroke="white" stroke-width="1.5"/>
<path d="M169.5 478.415L164.943 483.134C164.29 483.81 163.964 484.147 163.688 484.264C163.058 484.531 162.359 484.303 162.028 483.723C161.883 483.468 161.837 483.009 161.747 482.091C161.696 481.572 161.67 481.313 161.592 481.096C161.419 480.61 161.053 480.231 160.584 480.051C160.374 479.971 160.124 479.945 159.623 479.892C158.736 479.798 158.293 479.751 158.047 479.6C157.486 479.257 157.266 478.534 157.524 477.882C157.636 477.596 157.963 477.258 158.615 476.582L161.592 473.5" stroke="white" stroke-width="1.5"/>
<path d="M169.5 478.415L174.057 483.134C174.71 483.81 175.036 484.147 175.312 484.264C175.942 484.531 176.641 484.303 176.972 483.723C177.117 483.468 177.163 483.009 177.253 482.091C177.304 481.572 177.33 481.313 177.408 481.096C177.581 480.61 177.947 480.231 178.416 480.051C178.626 479.971 178.876 479.945 179.377 479.892C180.264 479.798 180.707 479.751 180.953 479.6C181.514 479.257 181.734 478.534 181.477 477.882C181.364 477.596 181.037 477.258 180.385 476.582L177.408 473.5" stroke="white" stroke-width="1.5"/>
<path d="M161.646 466.73C161.256 467.702 161.042 468.763 161.042 469.875C161.042 474.546 164.829 478.333 169.5 478.333C174.171 478.333 177.958 474.546 177.958 469.875C177.958 465.204 174.171 461.417 169.5 461.417C168.388 461.417 167.327 461.631 166.355 462.021" stroke="white" stroke-width="1.5" stroke-linecap="round"/>
<path d="M575.625 435.583H597.375" stroke="#FAFAFA" stroke-width="1.5" stroke-linecap="round" stroke-linejoin="round"/>
<path d="M575.625 429.542C575.625 430.681 575.625 431.25 575.979 431.604C576.333 431.958 576.902 431.958 578.042 431.958C579.181 431.958 579.751 431.958 580.104 431.604C580.458 431.25 580.458 430.681 580.458 429.542V422.292C580.458 421.152 580.458 420.583 580.104 420.229C579.751 419.875 579.181 419.875 578.042 419.875C576.902 419.875 576.333 419.875 575.979 420.229C575.625 420.583 575.625 421.152 575.625 422.292V424.708" stroke="#FAFAFA" stroke-width="1.5" stroke-linecap="round"/>
<path d="M584.083 417.458C584.083 416.319 584.083 415.749 584.437 415.396C584.791 415.042 585.361 415.042 586.5 415.042C587.639 415.042 588.209 415.042 588.563 415.396C588.917 415.749 588.917 416.319 588.917 417.458V429.542C588.917 430.681 588.917 431.25 588.563 431.604C588.209 431.958 587.639 431.958 586.5 431.958C585.361 431.958 584.791 431.958 584.437 431.604C584.083 431.25 584.083 430.681 584.083 429.542V417.458Z" stroke="#FAFAFA" stroke-width="1.5"/>
<path d="M597.375 422.292V429.542C597.375 430.681 597.375 431.25 597.021 431.604C596.667 431.958 596.098 431.958 594.958 431.958C593.819 431.958 593.25 431.958 592.896 431.604C592.542 431.25 592.542 430.681 592.542 429.542V413.833C592.542 412.694 592.542 412.124 592.896 411.771C593.25 411.417 593.819 411.417 594.958 411.417C596.098 411.417 596.667 411.417 597.021 411.771C597.375 412.124 597.375 412.694 597.375 413.833V417.458" stroke="#FAFAFA" stroke-width="1.5" stroke-linecap="round"/>
</g>
<defs>
<linearGradient id="paint0_linear_0_1" x1="332" y1="1.539e-08" x2="332" y2="664" gradientUnits="userSpaceOnUse">
<stop stop-color="#8351F1"/>
<stop offset="0.39" stop-color="#D5C2FF"/>
<stop offset="1" stop-color="#4B269D"/>
</linearGradient>
<linearGradient id="paint1_linear_0_1" x1="331.5" y1="59" x2="331.5" y2="606" gradientUnits="userSpaceOnUse">
<stop stop-color="#8351F1"/>
<stop offset="0.39" stop-color="#D5C2FF"/>
<stop offset="1" stop-color="#4B269D"/>
</linearGradient>
<linearGradient id="paint2_linear_0_1" x1="331.5" y1="115" x2="331.5" y2="551" gradientUnits="userSpaceOnUse">
<stop stop-color="#8351F1"/>
<stop offset="0.39" stop-color="#D5C2FF"/>
<stop offset="1" stop-color="#4B269D"/>
</linearGradient>
<clipPath id="clip0_0_1">
<rect width="664" height="664" fill="white"/>
</clipPath>
</defs>
</svg>
