<svg class="sm-map-pin" viewBox="0 0 40 49" data-index="6" style="--top: -33.3%; --left: -0.7%;"><path d="M20.107 48.72C13.677 43.248 8.874 38.166 5.7 33.473 2.524 28.78.937 24.437.937 20.443c0-5.99 1.927-10.764 5.78-14.318C10.573 2.57 15.036.793 20.108.793c5.072 0 9.536 1.777 13.39 5.332 3.854 3.554 5.78 8.327 5.78 14.318 0 3.994-1.587 8.337-4.762 13.03s-7.978 9.775-14.408 15.247Z"></path><path d="M31.569 30.62c-2.477 3.84-6.297 8.117-11.463 12.83-5.085-4.713-8.886-8.99-11.402-12.83-2.516-3.841-3.774-7.233-3.774-10.175 0-4.588 1.465-8.344 4.395-11.269 2.93-2.925 6.523-4.387 10.781-4.387 4.258 0 7.852 1.462 10.782 4.387 2.93 2.925 4.395 6.681 4.395 11.269 0 2.942-1.238 6.334-3.715 10.174Z"></path><path d="M23.212 23.069c-.859.86-1.892 1.291-3.102 1.291-1.209 0-2.244-.429-3.104-1.288-.862-.858-1.292-1.892-1.292-3.101 0-1.21.43-2.244 1.288-3.105.859-.861 1.892-1.292 3.101-1.292 1.21 0 2.245.43 3.105 1.288.862.859 1.292 1.893 1.292 3.102 0 1.209-.43 2.244-1.288 3.105Z"></path></svg>
