<?xml version="1.0" encoding="UTF-8"?>
<svg version="1.1" xmlns="http://www.w3.org/2000/svg" width="200" height="200">
<path d="M0 0 C3.375 1.0625 3.375 1.0625 5.375 2.5625 C7.77373722 8.55934306 5.45015404 14.08265329 3.14819336 19.75146484 C-1.51370625 31.09626944 -1.51370625 31.09626944 -0.625 43.0625 C1.63567238 45.23346316 3.78539891 46.39537983 6.6171875 47.7265625 C9.49592396 49.12107789 11.60251838 50.7071846 14 52.8125 C14.97839844 53.67101563 14.97839844 53.67101563 15.9765625 54.546875 C17.375 56.0625 17.375 56.0625 17.375 58.0625 C18.8909375 57.134375 18.8909375 57.134375 20.4375 56.1875 C22.9172521 54.66928443 24.82928757 53.95479332 27.703125 53.2734375 C32.13605237 51.81151464 34.67547243 49.67229755 38.0625 46.5625 C46.1390264 39.3020686 46.1390264 39.3020686 51.875 38.6875 C55.375 39.0625 55.375 39.0625 57.875 40.625 C59.375 43.0625 59.375 43.0625 59.5 46.5 C58.13563614 50.82048555 56.03589806 52.63857205 52.375 55.0625 C48.56937579 56.98522777 44.613025 58.53049634 40.65625 60.11132812 C39.87765625 60.43681641 39.0990625 60.76230469 38.296875 61.09765625 C37.59143555 61.3800415 36.88599609 61.66242676 36.15917969 61.95336914 C33.92476172 63.3423895 33.47997379 64.71599219 32.375 67.0625 C29.25 69.3125 29.25 69.3125 26.375 71.0625 C26.5915625 71.69414063 26.808125 72.32578125 27.03125 72.9765625 C29.45846203 80.77510486 29.69533622 87.93545148 29.375 96.0625 C30.6125 96.165625 31.85 96.26875 33.125 96.375 C35.77623139 96.59593595 37.01629746 96.74034772 39.0234375 98.54296875 C42.78119053 100.97115135 46.86047023 100.7837997 51.25 101.0625 C64.20470451 101.89220451 64.20470451 101.89220451 69.375 107.0625 C69.8125 110.4375 69.8125 110.4375 69.375 114.0625 C67.4375 116.5625 67.4375 116.5625 64.375 118.0625 C57.42744612 118.29028865 51.53519227 115.80369375 45.22338867 113.14697266 C40.74285409 111.32163102 37.28290188 110.87985299 32.375 111.0625 C29.93537242 110.58059826 27.74804743 109.83737263 25.375 109.0625 C25.1275 109.92875 24.88 110.795 24.625 111.6875 C21.90417696 119.03372222 16.58532182 124.37161452 11.375 130.0625 C11.99375 130.908125 12.6125 131.75375 13.25 132.625 C14.88820256 135.04008213 15.43588386 136.35031459 16.0625 139.3125 C17.77054507 144.19262877 20.67035731 146.97939843 24.1796875 150.703125 C27.79178783 154.58516877 31.23664798 158.52841902 31.375 164.0625 C30.3125 167.3125 30.3125 167.3125 28.375 170.0625 C24.99599053 171.31126437 23.26939606 171.43516502 19.9375 170.046875 C16.42183271 167.32437655 15.07762465 164.23393278 13.25 160.25 C12.91613281 159.55068359 12.58226562 158.85136719 12.23828125 158.13085938 C11.27514695 156.11205434 10.32380745 154.08806982 9.375 152.0625 C7.19983757 147.46511965 5.07528648 144.5730282 1.375 141.0625 C0.715 140.0725 0.055 139.0825 -0.625 138.0625 C-1.25664063 138.19527344 -1.88828125 138.32804688 -2.5390625 138.46484375 C-10.21197086 139.97952451 -17.82183987 140.62962396 -25.625 141.0625 C-25.81835938 141.66578125 -26.01171875 142.2690625 -26.2109375 142.890625 C-26.60152344 144.08945312 -26.60152344 144.08945312 -27 145.3125 C-27.38285156 146.49585938 -27.38285156 146.49585938 -27.7734375 147.703125 C-28.625 150.0625 -28.625 150.0625 -29.64306641 151.93676758 C-30.69561027 154.21536018 -30.98438372 155.941908 -31.1875 158.43359375 C-31.26226562 159.25537109 -31.33703125 160.07714844 -31.4140625 160.92382812 C-31.48367187 161.77396484 -31.55328125 162.62410156 -31.625 163.5 C-32.6415549 175.85867212 -32.6415549 175.85867212 -36.3125 179.9375 C-39.69267622 181.58191006 -42.04384523 180.92462985 -45.625 180.0625 C-48.33278494 177.35471506 -48.40757101 175.88490167 -48.625 172.0625 C-47.92154074 168.98723246 -46.85254563 166.07737218 -45.75 163.125 C-43.78425105 157.74387445 -42.22117922 152.80500787 -41.625 147.0625 C-41.52058594 146.11503906 -41.41617188 145.16757813 -41.30859375 144.19140625 C-41.22738281 143.34449219 -41.14617187 142.49757812 -41.0625 141.625 C-40.93681641 140.32755859 -40.93681641 140.32755859 -40.80859375 139.00390625 C-40.74800781 138.36324219 -40.68742187 137.72257813 -40.625 137.0625 C-41.24246094 136.7221875 -41.85992187 136.381875 -42.49609375 136.03125 C-48.91220886 132.35931806 -54.27544914 128.15361845 -59.625 123.0625 C-60.635625 123.68125 -61.64625 124.3 -62.6875 124.9375 C-65.26675016 126.4386236 -66.94809609 127.12955768 -69.9375 127.75 C-75.6196279 129.7724523 -79.27718574 133.98958913 -83.625 138.0625 C-86.81912368 140.85828031 -89.52232772 142.29755993 -93.8125 142.5 C-97.625 142.0625 -97.625 142.0625 -99.625 141.0625 C-101.22466715 137.86316571 -101.619193 134.47022733 -100.625 131.0625 C-95.98514327 126.32909777 -89.54730954 124.12651866 -83.57421875 121.50585938 C-78.67354951 119.27933485 -75.2730001 117.13927623 -71.625 113.0625 C-70.635 112.4025 -69.645 111.7425 -68.625 111.0625 C-68.76679687 110.07765625 -68.90859375 109.0928125 -69.0546875 108.078125 C-69.6369857 103.99174966 -70.20797271 99.90442436 -70.75 95.8125 C-70.89888672 94.75289062 -70.89888672 94.75289062 -71.05078125 93.671875 C-71.4804402 90.38405002 -71.68819119 88.25207358 -70.625 85.0625 C-71.23988281 85.02511719 -71.85476562 84.98773438 -72.48828125 84.94921875 C-73.29652344 84.88347656 -74.10476562 84.81773438 -74.9375 84.75 C-75.73800781 84.69199219 -76.53851563 84.63398437 -77.36328125 84.57421875 C-79.625 84.0625 -79.625 84.0625 -80.98999023 82.56958008 C-83.06759601 80.65453447 -84.25568994 80.61332268 -87.046875 80.4375 C-87.90796875 80.37046875 -88.7690625 80.3034375 -89.65625 80.234375 C-91.00203125 80.14929688 -91.00203125 80.14929688 -92.375 80.0625 C-98.73450072 79.65340931 -103.9670216 79.14328405 -109.625 76.0625 C-111.625 73.0625 -111.625 73.0625 -111.5625 69.5625 C-110.625 66.0625 -110.625 66.0625 -108.5625 64.0625 C-101.33453069 61.6019147 -94.17906541 65.17954283 -87.53710938 67.97851562 C-83.03166657 69.7868226 -79.55034735 70.24601655 -74.625 70.0625 C-72.18537242 70.54440174 -69.99804743 71.28762737 -67.625 72.0625 C-67.41875 71.258125 -67.2125 70.45375 -67 69.625 C-64.73975277 63.76890491 -61.36100178 58.47964966 -56.6875 54.25 C-56.006875 53.528125 -55.32625 52.80625 -54.625 52.0625 C-54.71652637 48.95060326 -55.85616251 47.71575623 -57.625 45.0625 C-57.74359375 44.11117187 -57.8621875 43.15984375 -57.984375 42.1796875 C-58.77103951 38.35189313 -60.14801288 36.9415764 -62.875 34.1875 C-72.06728595 24.40878433 -72.06728595 24.40878433 -73.25 17.3125 C-72.625 14.0625 -72.625 14.0625 -70.5 11.5625 C-67.625 10.0625 -67.625 10.0625 -64.625 9.9375 C-60.06920962 11.64592139 -57.68341503 14.97183301 -55.53857422 19.20849609 C-54.15117296 22.37386112 -52.85831821 25.5720758 -51.57617188 28.78125 C-51.25068359 29.55984375 -50.92519531 30.3384375 -50.58984375 31.140625 C-50.16626587 32.19878418 -50.16626587 32.19878418 -49.73413086 33.27832031 C-48.3451105 35.51273828 -46.97150781 35.95752621 -44.625 37.0625 C-42.375 40.1875 -42.375 40.1875 -40.625 43.0625 C-40.07714844 42.8459375 -39.52929688 42.629375 -38.96484375 42.40625 C-31.07621301 39.63560896 -23.89176247 39.76489655 -15.625 40.0625 C-15.50382812 39.43601563 -15.38265625 38.80953125 -15.2578125 38.1640625 C-15.09023437 37.34679688 -14.92265625 36.52953125 -14.75 35.6875 C-14.58757812 34.87539063 -14.42515625 34.06328125 -14.2578125 33.2265625 C-13.625 31.0625 -13.625 31.0625 -11.625 29.0625 C-11.14975341 26.6277375 -11.14975341 26.6277375 -10.94921875 23.79296875 C-10.84287109 22.73916016 -10.73652344 21.68535156 -10.62695312 20.59960938 C-10.41850826 18.3792184 -10.22046635 16.1578245 -10.03320312 13.93554688 C-9.08763938 4.8614527 -9.08763938 4.8614527 -6.24609375 1.8046875 C-3.625 0.0625 -3.625 0.0625 0 0 Z M-34.625 60.0625 C-34.07707105 64.6807583 -32.03535512 68.04399647 -29.5625 71.875 C-29.18544922 72.47248047 -28.80839844 73.06996094 -28.41992188 73.68554688 C-27.49510434 75.14886577 -26.56097935 76.60629523 -25.625 78.0625 C-23.975 77.7325 -22.325 77.4025 -20.625 77.0625 C-19.95423511 74.29260036 -19.28823683 71.52170258 -18.625 68.75 C-18.43421875 67.96431641 -18.2434375 67.17863281 -18.046875 66.36914062 C-17.86640625 65.61181641 -17.6859375 64.85449219 -17.5 64.07421875 C-17.33242187 63.37772217 -17.16484375 62.68122559 -16.9921875 61.96362305 C-16.53018116 59.89428262 -16.53018116 59.89428262 -16.625 57.0625 C-23.34200347 56.74264269 -28.38226932 57.5831176 -34.625 60.0625 Z M-10.625 59.0625 C-11.32388677 61.81005487 -12.0093988 64.55981197 -12.6875 67.3125 C-12.98624023 68.47845703 -12.98624023 68.47845703 -13.29101562 69.66796875 C-13.47470703 70.42207031 -13.65839844 71.17617187 -13.84765625 71.953125 C-14.02047119 72.64438477 -14.19328613 73.33564453 -14.37133789 74.04785156 C-14.65656637 76.31320809 -14.30576195 77.8993312 -13.625 80.0625 C-9.74389469 80.0625 -9.00184057 79.98605621 -5.953125 78.09375 C-5.28925781 77.68769531 -4.62539062 77.28164062 -3.94140625 76.86328125 C-3.25949219 76.43402344 -2.57757813 76.00476563 -1.875 75.5625 C-1.17761719 75.13324219 -0.48023437 74.70398438 0.23828125 74.26171875 C1.95541523 73.2032115 3.66587541 72.13389153 5.375 71.0625 C0.87420668 65.4619571 -3.31253278 60.66308295 -10.625 59.0625 Z M-41.625 64.0625 C-42.97120993 65.44717307 -44.27701803 66.87127247 -45.5625 68.3125 C-46.27277344 69.10140625 -46.98304687 69.8903125 -47.71484375 70.703125 C-50.32336479 73.92510191 -51.625 75.88380609 -51.625 80.0625 C-49.41971728 80.73918949 -47.21061391 81.40343498 -45 82.0625 C-43.77023438 82.43375 -42.54046875 82.805 -41.2734375 83.1875 C-37.88653174 83.99977719 -35.08645571 84.23291013 -31.625 84.0625 C-30.77431397 81.68428063 -30.43811325 80.5182028 -31.41357422 78.13964844 C-31.8313916 77.4902832 -32.24920898 76.84091797 -32.6796875 76.171875 C-33.12957031 75.46289062 -33.57945313 74.75390625 -34.04296875 74.0234375 C-34.52378906 73.29382813 -35.00460938 72.56421875 -35.5 71.8125 C-35.97308594 71.06742187 -36.44617188 70.32234375 -36.93359375 69.5546875 C-38.71635705 66.76508722 -38.71635705 66.76508722 -40.625 64.0625 C-40.955 64.0625 -41.285 64.0625 -41.625 64.0625 Z M-0.6875 80.8125 C-1.44611328 81.2559375 -2.20472656 81.699375 -2.98632812 82.15625 C-3.70369141 82.59453125 -4.42105469 83.0328125 -5.16015625 83.484375 C-5.824104 83.88237305 -6.48805176 84.28037109 -7.17211914 84.69042969 C-7.89129517 85.36960449 -7.89129517 85.36960449 -8.625 86.0625 C-8.625 87.3825 -8.625 88.7025 -8.625 90.0625 C-6.22968067 90.71029076 -3.83378252 91.35579009 -1.4375 92 C-0.76396484 92.18240234 -0.09042969 92.36480469 0.60351562 92.55273438 C4.17648458 93.5113358 7.73656738 94.39133282 11.375 95.0625 C11.68961385 87.96620975 11.82072039 82.37965405 8.375 76.0625 C5.39871468 76.0625 1.78819756 79.30720823 -0.6875 80.8125 Z M-53.625 86.0625 C-53.94485731 92.77950347 -53.1043824 97.81976932 -50.625 104.0625 C-46.10295929 103.50039104 -43.094243 101.73883941 -39.3125 99.25 C-38.24386719 98.56292969 -37.17523438 97.87585938 -36.07421875 97.16796875 C-34.86185547 96.12576172 -34.86185547 96.12576172 -33.625 95.0625 C-33.625 93.7425 -33.625 92.4225 -33.625 91.0625 C-36.02031933 90.41470924 -38.41621748 89.76920991 -40.8125 89.125 C-41.48603516 88.94259766 -42.15957031 88.76019531 -42.85351562 88.57226562 C-46.42648458 87.6136642 -49.98656738 86.73366718 -53.625 86.0625 Z M-9.625 96.0625 C-10.83946761 97.8334913 -10.83946761 97.8334913 -11.625 100.0625 C-10.98896185 102.07132998 -10.98896185 102.07132998 -9.6328125 103.953125 C-9.17519531 104.66210938 -8.71757813 105.37109375 -8.24609375 106.1015625 C-7.75238281 106.83117187 -7.25867188 107.56078125 -6.75 108.3125 C-6.26402344 109.05757812 -5.77804688 109.80265625 -5.27734375 110.5703125 C-4.07386444 112.41092791 -2.85635935 114.24046802 -1.625 116.0625 C1.91009902 113.24814932 4.92627853 110.8255925 7.3125 106.9375 C7.73402344 106.27492188 8.15554687 105.61234375 8.58984375 104.9296875 C9.68605272 102.89692774 9.68605272 102.89692774 8.375 100.0625 C6.56166364 99.27418235 6.56166364 99.27418235 4.33984375 98.89453125 C3.53095703 98.72373047 2.72207031 98.55292969 1.88867188 98.37695312 C1.03853516 98.21130859 0.18839844 98.04566406 -0.6875 97.875 C-1.54150391 97.69775391 -2.39550781 97.52050781 -3.27539062 97.33789062 C-5.38950895 96.9008941 -7.50697834 96.48016794 -9.625 96.0625 Z M-37.8125 104.3125 C-38.46669922 104.70824219 -39.12089844 105.10398437 -39.79492188 105.51171875 C-41.91075787 106.81076342 -41.91075787 106.81076342 -44.625 109.0625 C-44.625 110.3825 -44.625 111.7025 -44.625 113.0625 C-42.56621174 115.05888238 -42.56621174 115.05888238 -39.875 116.75 C-38.99328125 117.35199219 -38.1115625 117.95398438 -37.203125 118.57421875 C-34.8920498 119.90833943 -33.18634857 120.49561629 -30.625 121.0625 C-29.92611323 118.31494513 -29.2406012 115.56518803 -28.5625 112.8125 C-28.36333984 112.03519531 -28.16417969 111.25789063 -27.95898438 110.45703125 C-27.77529297 109.70292969 -27.59160156 108.94882813 -27.40234375 108.171875 C-27.22952881 107.48061523 -27.05671387 106.78935547 -26.87866211 106.07714844 C-26.59343363 103.81179191 -26.94423805 102.2256688 -27.625 100.0625 C-31.79226122 100.0625 -34.41319185 102.13721555 -37.8125 104.3125 Z M-20.625 102.0625 C-21.29576489 104.83239964 -21.96176317 107.60329742 -22.625 110.375 C-22.81578125 111.16068359 -23.0065625 111.94636719 -23.203125 112.75585938 C-23.38359375 113.51318359 -23.5640625 114.27050781 -23.75 115.05078125 C-24.00136719 116.09552612 -24.00136719 116.09552612 -24.2578125 117.16137695 C-24.71981884 119.23071738 -24.71981884 119.23071738 -24.625 122.0625 C-15.93575418 122.37926843 -15.93575418 122.37926843 -7.625 120.0625 C-8.19708731 115.52849458 -10.08356183 112.08209173 -12.4375 108.25 C-12.78103516 107.65251953 -13.12457031 107.05503906 -13.47851562 106.43945312 C-14.60760126 104.50851507 -14.60760126 104.50851507 -16.625 102.0625 C-17.945 102.0625 -19.265 102.0625 -20.625 102.0625 Z " fill="#000000" transform="translate(120.625,9.9375)"/>
</svg>
