<svg width="209.3" height="78.7" viewBox="0 0 209.3 78.7" xmlns="http://www.w3.org/2000/svg"><g id="svgGroup" stroke-linecap="round" fill-rule="evenodd" font-size="9pt" stroke="#14cf93" stroke-width="0.25mm" fill="#14cf93" style="stroke:#14cf93;stroke-width:0.25mm;fill:#14cf93"><path d="M 123.7 31.7 L 124 31.7 L 109.9 75.7 C 110.1 76.3 111 77.1 111.5 77.5 L 130.2 69.1 L 130.1 68.5 L 120.4 72.3 L 133.9 28.9 L 123.7 29.6 L 122.8 31.7 C 115.1 48.5 98.8 72.5 98.1 72.6 C 96.3 72.2 95.5 71.3 95.5 69.6 C 95.5 66.1 107.1 38.5 107.1 32.7 C 105.6 30.4 103.8 28.7 101.3 27.7 L 88.6 34.5 L 89 35.1 L 98.5 30.3 C 98.3 33.5 86.6 63.6 86.6 69.6 C 86.6 74.2 89.1 75.4 94.1 77.5 C 100.8 76.9 116 49.1 123.7 31.7 Z M 19.3 28.5 L 1.1 36.2 L 1 37 L 10.7 33.1 L 0 69.6 C 1.1 72.9 2.8 75.2 5 76.2 C 4 76.8 3.1 77.4 2.2 78 C 2.2 78.4 2.4 78.6 2.7 78.7 C 17 70.4 37.4 48.7 37.9 32.9 C 37.9 28.6 37 21.4 30.9 21.4 C 29.4 22.6 26.8 25.7 25.3 27.5 C 29.4 27 34.7 32.6 36.1 35.8 C 33.8 49.4 20.2 64.9 7.9 74.1 C 7.4 74 7.1 73.7 7.1 73.2 C 10.7 59.1 17.8 45 20.3 30.9 C 20.2 30 20 29 19.3 28.5 Z M 165.5 36.4 L 165.8 36.4 L 153.7 75.7 C 153.9 76.3 154.8 77.1 155.3 77.5 L 174.3 69.1 L 174.3 68.3 L 164.2 72.5 L 176.6 31.2 C 173.2 29.5 166.3 27 162.5 27.5 C 155.3 27.9 131.4 47.5 131.4 63.8 C 131.4 69 134.9 75.7 140.6 76.7 C 145.1 70.7 162.4 44.2 165.5 36.4 Z M 183.6 77.5 L 197.4 70.6 L 197.2 70 L 186.9 74.5 L 209.3 1.5 L 208.1 0 L 188.2 7.7 L 188.5 8.5 L 199.1 4.7 L 178.1 72.3 C 180.1 75.1 181.6 76.9 183.6 77.5 Z M 56.1 65.7 L 50.8 70.3 C 50.9 74.1 58.3 77.5 61.7 76.7 C 72.5 74.2 80.7 67.1 82.1 56.2 C 82.6 51.9 67.6 44 67.6 34.3 C 70.1 31.5 72.9 29 77.7 29 C 80 29 84.3 32.2 87.6 34.9 L 88.3 34.9 L 90.3 28.5 C 89.1 26.2 84.9 25.8 81.1 25.8 C 73.1 25.8 63.3 35 62.3 42.6 C 61 53.7 77.9 59 76.9 67.1 C 74.8 70 70.6 71.8 66.5 71.8 C 63.1 71.4 58.4 69.2 56.1 65.7 Z M 39.5 77.5 L 52.5 70.1 L 52.2 69.5 L 41.9 74.7 L 55.7 28.7 L 54.6 28.5 L 37.3 34.2 L 37.5 34.8 L 45.9 32.3 L 34.1 71.4 C 35.9 74.4 37.1 75.7 39.5 77.5 Z M 165.6 34.3 L 164.5 36.4 C 161.6 43.7 144.7 68.4 143.9 68.7 C 141.9 68.4 141.1 66 141.1 62.6 C 141.1 54.1 151.2 31.8 156 31.8 C 159.6 31.4 162.9 32.7 165.6 34.3 Z M 56.2 8.4 L 64.1 5.8 L 64.4 6 C 63.2 8.9 61.1 13.7 60.8 17.7 C 59.3 17.3 56.9 16.9 55 16.4 C 53.8 14 54.8 9.6 56.2 8.4 Z" vector-effect="non-scaling-stroke"/></g></svg>