<svg width="24" height="24" viewBox="0 0 24 24" fill="none" xmlns="http://www.w3.org/2000/svg">
<path fill-rule="evenodd" clip-rule="evenodd" d="M3 11.9998C3 11.545 3.36631 11.1763 3.81818 11.1763L20.1818 11.1763C20.6337 11.1763 21 11.545 21 11.9998C21 12.4546 20.6337 12.8233 20.1818 12.8233L3.81818 12.8233C3.36631 12.8233 3 12.4546 3 11.9998Z" fill="white"/>
<path fill-rule="evenodd" clip-rule="evenodd" d="M13.4669 5.24121C13.7865 4.9196 14.3045 4.9196 14.624 5.24121L20.7604 11.4177C21.0799 11.7393 21.0799 12.2607 20.7604 12.5823L14.624 18.7588C14.3045 19.0804 13.7865 19.0804 13.4669 18.7588C13.1474 18.4372 13.1474 17.9158 13.4669 17.5941L19.0248 12L13.4669 6.40585C13.1474 6.08424 13.1474 5.56281 13.4669 5.24121Z" fill="white"/>
</svg>
