<?xml version="1.0" encoding="UTF-8"?>
<svg version="1.1" xmlns="http://www.w3.org/2000/svg" width="50" height="50">
<path d="M0 0 C3.8801689 2.3237118 5.50490167 6.11254898 7.07177734 10.24072266 C7.66903789 14.00285186 7.64119408 17.62850329 7.50927734 21.42822266 C7.50347656 22.38664062 7.49767578 23.34505859 7.49169922 24.33251953 C7.40526894 29.33510388 7.03050985 33.56021728 5.07177734 38.24072266 C4.41177734 38.24072266 3.75177734 38.24072266 3.07177734 38.24072266 C2.74177734 39.23072266 2.41177734 40.22072266 2.07177734 41.24072266 C-5.56974866 46.33507333 -18.16197564 45.11529483 -26.96728516 43.77978516 C-30.93436401 42.65202027 -32.64276437 41.56186323 -35.42822266 38.42822266 C-39.91318923 28.89766868 -39.20962749 14.08493717 -35.92822266 4.24072266 C-34.93822266 3.91072266 -33.94822266 3.58072266 -32.92822266 3.24072266 C-32.59822266 2.25072266 -32.26822266 1.26072266 -31.92822266 0.24072266 C-24.22981269 -4.28152603 -8.05236035 -3.22285909 0 0 Z " fill="#6B39F8" transform="translate(39.92822265625,3.75927734375)"/>
<path d="M0 0 C0.825 -0.00773438 1.65 -0.01546875 2.5 -0.0234375 C7.58868373 -0.00728295 11.80427081 0.61277122 16.625 2.25 C15.965 3.9 15.305 5.55 14.625 7.25 C12.645 7.25 10.665 7.25 8.625 7.25 C8.625 6.59 8.625 5.93 8.625 5.25 C7.2946875 5.806875 7.2946875 5.806875 5.9375 6.375 C2.21673995 7.35784228 0.95061865 7.01062164 -2.375 5.25 C-3.035 5.91 -3.695 6.57 -4.375 7.25 C-5.4475 7.394375 -6.52 7.53875 -7.625 7.6875 C-11.45140044 8.26146007 -13.96654241 9.50613798 -17.375 11.25 C-18.035 10.92 -18.695 10.59 -19.375 10.25 C-18.715 8.6 -18.055 6.95 -17.375 5.25 C-16.715 5.25 -16.055 5.25 -15.375 5.25 C-15.045 4.26 -14.715 3.27 -14.375 2.25 C-9.88990671 -0.40914622 -5.04861637 -0.04689117 0 0 Z " fill="#7C43FA" transform="translate(22.375,1.75)"/>
<path d="M0 0 C5.45880929 4.73096805 6.16634534 10.0528778 7 17 C4 17 4 17 2.375 15.625 C1 14 1 14 0 12 C-0.99 12.66 -1.98 13.32 -3 14 C-3 13.01 -3 12.02 -3 11 C-3.99 11.33 -4.98 11.66 -6 12 C-6.28875 11.360625 -6.5775 10.72125 -6.875 10.0625 C-7.82823451 7.84793921 -7.82823451 7.84793921 -10 7 C-10 6.01 -10 5.02 -10 4 C-10.66 3.67 -11.32 3.34 -12 3 C-8.18510326 1.53273202 -5.70988378 2.56663581 -2 4 C-1.34 2.68 -0.68 1.36 0 0 Z " fill="#7724F7" transform="translate(39,5)"/>
<path d="M0 0 C1.32 1.65 2.64 3.3 4 5 C3.34 5 2.68 5 2 5 C2 5.99 2 6.98 2 8 C2.66 8.33 3.32 8.66 4 9 C4 9.66 4 10.32 4 11 C3.34 11 2.68 11 2 11 C2 12.32 2 13.64 2 15 C6.91582077 16.51953709 6.91582077 16.51953709 12 17 C11 19 10 21 9 23 C8.649375 22.484375 8.29875 21.96875 7.9375 21.4375 C5.91175245 19.59284296 5.91175245 19.59284296 2.37890625 20.41015625 C0.70634766 20.70212891 0.70634766 20.70212891 -1 21 C-1.02895976 17.87501937 -1.04678483 14.7500731 -1.0625 11.625 C-1.07087891 10.73554688 -1.07925781 9.84609375 -1.08789062 8.9296875 C-1.09111328 8.07890625 -1.09433594 7.228125 -1.09765625 6.3515625 C-1.10289307 5.56604004 -1.10812988 4.78051758 -1.11352539 3.97119141 C-1 2 -1 2 0 0 Z " fill="#7747FA" transform="translate(3,15)"/>
<path d="M0 0 C3 1 3 1 4.16796875 2.63671875 C6.30716379 6.93969729 7.4926146 10.07385397 7 15 C3.67959699 12.40142373 3.65680354 10.02292166 3 6 C1.51199628 3.7927642 1.51199628 3.7927642 0 2 C0 1.34 0 0.68 0 0 Z " fill="#7442F9" transform="translate(40,5)"/>
<path d="M0 0 C1.32 0.66 2.64 1.32 4 2 C3.34 3.98 2.68 5.96 2 8 C0.35 7.67 -1.3 7.34 -3 7 C-2.34 6.34 -1.68 5.68 -1 5 C-0.34 5.33 0.32 5.66 1 6 C0.34 4.35 -0.32 2.7 -1 1 C-0.67 0.67 -0.34 0.34 0 0 Z " fill="#6F1FF7" transform="translate(42,28)"/>
</svg>
