<svg width="50" height="50" viewBox="0 0 50 50" fill="none" xmlns="http://www.w3.org/2000/svg">
<path fill-rule="evenodd" clip-rule="evenodd" d="M20.3272 12.5993L24.9721 3.39925L29.6556 12.6102L26.8929 12.607L26.8962 15.4344L34.5588 15.4412L33.3166 13.0481L26.6879 0.00398695L23.2482 0L16.906 12.5954L16.902 12.5954L15.4412 15.419L23.1038 15.43L23.1005 12.6026L20.3272 12.5993ZM37.4007 20.3272L46.6007 24.9721L37.3898 29.6556L37.393 26.8929L34.5657 26.8962L34.5588 34.5588L36.9519 33.3166L49.996 26.6879L50 23.2482L37.4046 16.906L37.4046 16.902L34.581 15.4412L34.57 23.1038L37.3974 23.1005L37.4007 20.3272ZM25.0279 46.6007L29.6728 37.4007L26.8995 37.3974L26.8962 34.57L34.5588 34.581L33.098 37.4046L33.094 37.4046L26.7518 50L23.3121 49.996L16.6834 36.9519L15.4412 34.5588L23.1038 34.5656L23.1071 37.393L20.3444 37.3898L25.0279 46.6007ZM12.5993 29.6728L3.39925 25.0279L12.6102 20.3444L12.607 23.1071L15.4344 23.1038L15.4412 15.4412L13.0481 16.6834L0.00398842 23.3121L0 26.7518L12.5954 33.094L12.5954 33.098L15.419 34.5588L15.43 26.8962L12.6026 26.8995L12.5993 29.6728Z" fill="black"/>
</svg>
