<svg width="233.7" height="82.1" viewBox="0 0 233.7 82.1" xmlns="http://www.w3.org/2000/svg"><g id="svgGroup" stroke-linecap="round" fill-rule="evenodd" font-size="9pt" stroke="#000" stroke-width="0.25mm" fill="#000" style="stroke:#000;stroke-width:0.25mm;fill:#000"><path d="M 86.6 76.1 L 96.7 75.8 L 97.4 74.2 L 97.7 73.5 C 102.7 60 115.8 33.6 120.6 31.2 C 122.1 31.2 123.2 32.1 123.2 36.4 C 123.2 39.8 123.3 48.2 109 57.7 C 109 62.2 120.1 82.1 121.3 82.1 L 134.9 75.5 L 134.4 74.8 L 127 78.3 L 116.4 58.4 L 112.6 58 C 123.6 53.8 132.6 44.4 132.6 35.8 C 132.6 31.2 128.5 28.3 124.4 28.3 C 121.9 29.4 113.4 29.9 96.7 73.5 L 96.1 73.5 L 121.6 1.6 C 121.3 1.1 120.9 0.4 120.3 0 L 100 7.8 L 100.3 8.6 L 112 4.5 L 86.6 76.1 Z M 129.2 76.1 L 139.3 75.8 L 140 74.2 L 140.3 73.5 C 145.3 60 158.4 33.6 163.2 31.2 C 164.7 31.2 165.8 32.1 165.8 36.4 C 165.8 39.8 165.9 48.2 151.6 57.7 C 151.6 62.2 162.7 82.1 163.9 82.1 L 177.5 75.5 L 177 74.8 L 169.6 78.3 L 159 58.4 L 155.2 58 C 166.2 53.8 175.2 44.4 175.2 35.8 C 175.2 31.2 171.1 28.3 167 28.3 C 164.5 29.4 156 29.9 139.3 73.5 L 138.7 73.5 L 164.2 1.6 C 163.9 1.1 163.5 0.4 162.9 0 L 142.6 7.8 L 142.9 8.6 L 154.6 4.5 L 129.2 76.1 Z M 19.3 28.3 L 1.1 36 L 1 36.8 L 10.7 32.9 L 0 69.4 C 1.1 72.7 2.8 75 5 76 C 4 76.6 3.1 77.2 2.2 77.8 C 2.2 78.2 2.4 78.4 2.7 78.5 C 17 70.2 37.4 48.5 37.9 32.7 C 37.9 28.4 37 21.2 30.9 21.2 C 29.4 22.4 26.8 25.5 25.3 27.3 C 29.4 26.8 34.7 32.4 36.1 35.6 C 33.8 49.2 20.2 64.7 7.9 73.9 C 7.4 73.8 7.1 73.5 7.1 73 C 10.7 58.9 17.8 44.8 20.3 30.7 C 20.2 29.8 20 28.8 19.3 28.3 Z M 82.3 66.4 L 81.9 65.3 C 78.7 67.9 73.6 71.4 70.1 73.4 C 65.5 73 65 68.4 65 63.9 C 65 49.8 73.2 29.4 83.2 30.2 C 85.6 32.6 86.8 36.1 88.8 40.2 C 89.2 40.3 89.5 40.3 89.9 40.3 C 92.5 40.5 94.6 38.3 94.7 36 C 94.9 32.9 93.3 29.3 88 28.3 C 71.6 28.1 55.2 45.8 55.2 62.4 C 55.2 71.3 60 76 67.1 76.7 C 71.5 74.7 79.3 68.9 82.3 66.4 Z M 224.9 67.8 L 224.5 66.6 C 221.4 68.6 217.1 71.3 212.6 73.9 C 207.6 73.3 205.7 68.4 205.7 60.5 C 205.7 59.4 205.7 58.2 205.8 56.9 C 207.6 56.9 221.2 49.3 224.2 47.2 C 228.5 44.3 233.7 38.1 233.7 34.5 C 233.7 31.1 229.5 28.4 228.4 28.4 C 214.2 27.3 196.5 44.7 196 61.8 C 195.8 69 200.1 76.1 208.7 77.3 C 213.2 75.5 221.9 69.6 224.9 67.8 Z M 39.5 77.3 L 52.5 69.9 L 52.2 69.3 L 41.9 74.5 L 55.7 28.5 L 54.6 28.3 L 37.3 34 L 37.5 34.6 L 45.9 32.1 L 34.1 71.2 C 35.9 74.2 37.1 75.5 39.5 77.3 Z M 180.4 77.3 L 193.4 69.9 L 193.1 69.3 L 182.8 74.5 L 196.6 28.5 L 195.5 28.3 L 178.2 34 L 178.4 34.6 L 186.8 32.1 L 175 71.2 C 176.8 74.2 178 75.5 180.4 77.3 Z M 205.9 55.7 C 206.3 44.5 215.9 29.6 223.9 29.6 C 225.1 29.6 225.6 30.5 225.6 32 C 225.6 38.5 210.4 55.7 205.9 55.7 Z M 56.2 8.2 L 64.1 5.6 L 64.4 5.8 C 63.2 8.7 61.1 13.5 60.8 17.5 C 59.3 17.1 56.9 16.7 55 16.2 C 53.8 13.8 54.8 9.4 56.2 8.2 Z M 197.1 8.2 L 205 5.6 L 205.3 5.8 C 204.1 8.7 202 13.5 201.7 17.5 C 200.2 17.1 197.8 16.7 195.9 16.2 C 194.7 13.8 195.7 9.4 197.1 8.2 Z" vector-effect="non-scaling-stroke"/></g></svg>