<svg xmlns="http://www.w3.org/2000/svg" width="32" height="32" viewBox="0 0 32 32" fill="none">
  <path d="M18.75 17.375C19.8958 17.375 20.8698 16.974 21.6719 16.1719C22.474 15.3698 22.875 14.3958 22.875 13.25C22.875 12.1042 22.474 11.1302 21.6719 10.3281C20.8698 9.52604 19.8958 9.125 18.75 9.125C17.6042 9.125 16.6302 9.52604 15.8281 10.3281C15.026 11.1302 14.625 12.1042 14.625 13.25C14.625 14.3958 15.026 15.3698 15.8281 16.1719C16.6302 16.974 17.6042 17.375 18.75 17.375ZM9.125 21.5C8.36875 21.5 7.72158 21.2305 7.1835 20.6915C6.6445 20.1534 6.375 19.5063 6.375 18.75V7.75C6.375 6.99375 6.6445 6.34658 7.1835 5.8085C7.72158 5.2695 8.36875 5 9.125 5H28.375C29.1313 5 29.7789 5.2695 30.3179 5.8085C30.856 6.34658 31.125 6.99375 31.125 7.75V18.75C31.125 19.5063 30.856 20.1534 30.3179 20.6915C29.7789 21.2305 29.1313 21.5 28.375 21.5H9.125ZM3.625 27C2.86875 27 2.22158 26.731 1.6835 26.1929C1.1445 25.6539 0.875 25.0063 0.875 24.25V10.5C0.875 10.1104 1.007 9.78363 1.271 9.51963C1.53408 9.25654 1.86042 9.125 2.25 9.125C2.63958 9.125 2.96638 9.25654 3.23038 9.51963C3.49346 9.78363 3.625 10.1104 3.625 10.5V24.25H25.625C26.0146 24.25 26.3409 24.382 26.604 24.646C26.868 24.9091 27 25.2354 27 25.625C27 26.0146 26.868 26.3409 26.604 26.604C26.3409 26.868 26.0146 27 25.625 27H3.625ZM9.125 10.5C9.88125 10.5 10.5284 10.2305 11.0665 9.6915C11.6055 9.15342 11.875 8.50625 11.875 7.75H9.125V10.5ZM28.375 10.5V7.75H25.625C25.625 8.50625 25.894 9.15342 26.4321 9.6915C26.9711 10.2305 27.6187 10.5 28.375 10.5ZM9.125 18.75H11.875C11.875 17.9937 11.6055 17.3461 11.0665 16.8071C10.5284 16.269 9.88125 16 9.125 16V18.75ZM25.625 18.75H28.375V16C27.6187 16 26.9711 16.269 26.4321 16.8071C25.894 17.3461 25.625 17.9937 25.625 18.75Z" fill="white"></path>
</svg>