<svg xmlns="http://www.w3.org/2000/svg" width="27" height="27" viewBox="0 0 27 27" fill="none">
  <g clip-path="url(#clip0_778_769)">
    <path fill-rule="evenodd" clip-rule="evenodd" d="M19.6773 1.02C19.7743 0.864155 19.9154 0.740575 20.0826 0.664878C20.2499 0.589182 20.4358 0.564765 20.617 0.594715L25.3917 1.39143C25.6345 1.43192 25.8512 1.56714 25.9943 1.76738C26.1375 1.96761 26.1952 2.21648 26.155 2.45929L25.3601 7.23586C25.3298 7.41692 25.2465 7.58494 25.1207 7.71866C24.9949 7.85238 24.8323 7.94582 24.6534 7.98716C24.4745 8.0285 24.2874 8.01589 24.1157 7.95092C23.944 7.88595 23.7954 7.77154 23.6887 7.62214L22.3998 5.82072L15.7624 10.0624C15.4794 10.2436 15.1404 10.3162 14.8079 10.2671C14.4755 10.2179 14.1721 10.0503 13.9535 9.795L10.2523 5.46786L3.33069 9.02429C3.00216 9.19323 2.61998 9.22475 2.26821 9.1119C1.91645 8.99906 1.62392 8.7511 1.45497 8.42257C1.28603 8.09404 1.25451 7.71186 1.36736 7.3601C1.4802 7.00833 1.72816 6.7158 2.05669 6.54686L9.95883 2.48529C10.2378 2.34196 10.557 2.29699 10.8647 2.35766C11.1725 2.41833 11.4507 2.58108 11.6544 2.81957L15.2833 7.06314L20.7804 3.54943L19.7088 2.05071C19.6023 1.90126 19.5424 1.72359 19.5368 1.54014C19.5312 1.35669 19.5801 1.17569 19.6773 1.02ZM7.5204 10.1386L2.13097 13.2214C1.91806 13.343 1.74103 13.5187 1.61777 13.7307C1.4945 13.9426 1.42938 14.1834 1.42897 14.4286V25.1071C1.42897 25.876 2.05297 26.5 2.82183 26.5H7.5204V10.1386ZM9.84183 26.5H16.6538V13.8491L13.5914 15.3794L10.5308 10.0234C10.3763 9.75105 10.1341 9.53897 9.84369 9.42171L9.84183 26.5ZM24.179 26.5H18.9753V12.6884L23.5568 10.3967C23.7692 10.2907 24.0051 10.2407 24.2422 10.2515C24.4793 10.2623 24.7097 10.3334 24.9116 10.4583C25.1134 10.5831 25.2801 10.7575 25.3956 10.9648C25.5112 11.1721 25.5718 11.4055 25.5718 11.6429V25.1071C25.5718 25.4766 25.4251 25.8308 25.1639 26.092C24.9027 26.3533 24.5484 26.5 24.179 26.5Z" fill="white"></path>
  </g>
  <defs>
    <clipPath id="clip0_778_769">
      <rect width="26" height="26" fill="white" transform="translate(0.5 0.5)"></rect>
    </clipPath>
  </defs>
</svg>