<svg xmlns="http://www.w3.org/2000/svg" width="31" height="31" viewBox="0 0 31 31" fill="none">
  <g clip-path="url(#clip0_786_786)">
    <path d="M8 5.51245C4.975 7.79995 3 11.4125 3 15.5C3 17.325 3.4 19.0625 4.1125 20.6375L8 18.3875V5.51245Z" fill="white"></path>
    <path d="M14.25 14.775V3.0625C12.925 3.2 11.6625 3.5375 10.5 4.05V16.95L14.25 14.775Z" fill="white"></path>
    <path d="M15.4998 16.9375L5.3623 22.7875C6.1248 23.8375 7.0373 24.775 8.0873 25.5375L19.2498 19.1125L15.4998 16.9375Z" fill="white"></path>
    <path d="M16.75 10.45V14.775L26.8875 20.625C27.4125 19.4625 27.7625 18.2125 27.9125 16.9L16.75 10.45Z" fill="white"></path>
    <path d="M10.5879 27C12.1004 27.6375 13.7504 28 15.5004 28C19.6754 28 23.3629 25.9375 25.6379 22.8L21.7504 20.55L10.5879 27Z" fill="white"></path>
    <path d="M27.9 14.0125C27.2125 8.225 22.575 3.6375 16.75 3.0625V7.5625L27.9 14.0125Z" fill="white"></path>
  </g>
  <defs>
    <clipPath id="clip0_786_786">
      <rect width="30" height="30" fill="white" transform="translate(0.5 0.5)"></rect>
    </clipPath>
  </defs>
</svg>